<?xml version="1.0" standalone="no"?>
<!DOCTYPE svg PUBLIC "-//W3C//DTD SVG 20010904//EN"
 "http://www.w3.org/TR/2001/REC-SVG-20010904/DTD/svg10.dtd">
<svg version="1.0" xmlns="http://www.w3.org/2000/svg"
 width="644.000000pt" height="644.000000pt" viewBox="0 0 644.000000 644.000000"
 preserveAspectRatio="xMidYMid meet">
<metadata>
Created by potrace 1.14, written by Peter Selinger 2001-2017
</metadata>
<g transform="translate(0.000000,644.000000) scale(0.100000,-0.100000)"
fill="#000000" stroke="none">
<path d="M6100 6429 c-14 -4 -19 -7 -12 -8 7 -1 10 -6 7 -11 -4 -6 -10 -8 -14
-5 -5 2 -25 -5 -47 -15 -21 -11 -53 -20 -72 -20 -18 0 -42 -5 -53 -10 -10 -6
-36 -12 -56 -15 -53 -5 -135 -29 -128 -37 3 -3 -7 -11 -22 -17 -54 -22 -78
-40 -83 -63 -3 -13 -12 -23 -20 -24 -33 -2 -40 -4 -39 -11 3 -19 -15 -53 -27
-53 -8 0 -14 -4 -14 -10 0 -5 -7 -10 -15 -10 -9 0 -18 -7 -21 -15 -4 -8 -13
-15 -21 -15 -9 0 -13 -6 -9 -15 3 -8 1 -15 -4 -15 -6 0 -10 7 -10 15 0 8 -6
15 -12 15 -24 -1 -45 -25 -42 -48 4 -24 -21 -32 -29 -9 -3 9 -10 9 -28 -2 -13
-8 -46 -13 -76 -12 -31 1 -53 -3 -53 -9 0 -5 -17 -10 -38 -10 -31 0 -41 -5
-52 -25 -7 -13 -26 -27 -41 -30 -16 -4 -29 -11 -29 -17 0 -7 -19 -9 -50 -6
-37 4 -53 1 -62 -10 -10 -12 -30 -13 -110 -8 -93 7 -98 6 -98 -12 0 -18 -10
-20 -120 -27 -67 -4 -192 -4 -279 0 -154 7 -213 1 -245 -27 -6 -4 -20 -8 -33
-8 -13 0 -23 -6 -23 -14 0 -27 -40 -25 -73 3 -37 32 -92 62 -170 91 -30 11
-70 36 -88 55 -19 19 -62 46 -94 60 -33 15 -79 35 -101 46 -35 17 -57 19 -139
15 -90 -4 -100 -2 -132 20 -49 33 -99 45 -198 47 -95 2 -117 -8 -170 -81 -30
-41 -55 -54 -55 -28 0 12 -11 13 -55 9 -51 -5 -55 -4 -55 16 0 13 -12 29 -32
41 -43 26 -51 25 -79 -6 -13 -14 -50 -53 -82 -86 -36 -38 -72 -89 -92 -132
-19 -39 -35 -62 -35 -51 -1 20 -1 20 -15 1 -11 -14 -15 -16 -15 -5 0 10 -15
14 -57 15 -32 1 -123 7 -203 13 -80 6 -316 13 -525 16 -370 5 -488 9 -570 19
-48 6 -202 21 -380 36 -71 7 -155 16 -185 22 -30 5 -73 11 -95 12 -53 2 -115
16 -115 26 0 4 -11 11 -25 14 -14 4 -25 11 -25 16 0 6 -8 10 -18 10 -10 0 -22
3 -26 7 -9 10 -78 33 -99 33 -16 0 -17 -85 -17 -1700 0 -1674 1 -1700 20
-1700 10 0 34 15 53 32 46 43 47 57 48 418 1 295 10 442 29 448 6 2 10 9 10
15 -1 30 55 244 67 258 7 8 13 22 13 30 0 8 6 21 13 27 12 13 15 185 8 403 -3
86 12 156 45 206 8 12 14 33 14 46 0 17 7 26 21 30 12 3 18 10 15 16 -8 13 33
61 52 61 7 0 12 6 9 13 -2 6 -12 11 -21 9 -14 -3 -15 0 -5 15 18 29 144 78
172 68 9 -4 30 9 56 36 23 24 41 40 41 36 0 -4 10 2 22 13 25 23 30 58 10 78
-15 16 -8 163 10 195 l12 22 6 -25 c5 -18 8 -9 12 35 2 33 1 66 -3 74 -4 9 3
30 16 52 13 20 22 39 19 42 -10 9 102 108 129 114 15 3 27 9 27 14 0 4 8 10
19 14 10 3 30 16 44 28 98 88 120 96 270 102 89 3 142 -12 152 -45 3 -11 10
-20 14 -20 11 0 61 -76 61 -94 0 -7 15 -29 33 -47 54 -55 107 -126 118 -159 6
-16 15 -30 20 -30 5 0 9 -9 9 -20 0 -11 5 -20 10 -20 6 0 10 -11 10 -24 0 -13
7 -29 15 -36 8 -7 15 -19 15 -26 0 -8 4 -14 9 -14 16 0 33 -59 28 -92 -23
-131 -24 -137 -8 -143 8 -3 18 -1 21 6 5 7 33 10 76 8 38 -2 75 0 82 5 22 13
56 -2 70 -31 16 -36 15 -95 -2 -118 -18 -25 -9 -54 20 -66 13 -4 24 -15 24
-23 0 -10 14 -17 38 -21 69 -11 83 -16 77 -24 -2 -5 2 -11 10 -15 10 -4 15 1
15 15 0 12 5 19 13 16 7 -2 11 -15 9 -30 -2 -15 1 -27 7 -27 6 0 11 5 11 11 0
6 6 9 14 6 8 -3 17 -1 20 6 3 7 3 2 1 -9 -4 -15 4 -31 24 -53 32 -34 54 -41
44 -13 -6 16 -5 16 14 -1 17 -14 22 -35 28 -110 3 -51 13 -119 21 -152 7 -33
14 -80 14 -105 0 -43 -2 -47 -34 -58 l-34 -13 5 -117 c4 -95 10 -126 28 -162
13 -25 30 -65 38 -90 8 -25 29 -84 47 -133 l32 -87 -28 -23 c-43 -33 -83 -63
-144 -105 -118 -81 -139 -98 -149 -119 -5 -12 -29 -30 -53 -41 -24 -10 -58
-31 -76 -47 -39 -33 -30 -44 33 -45 48 -1 66 -11 128 -70 53 -50 187 -220 187
-237 0 -6 34 -54 75 -107 41 -52 73 -101 71 -108 -1 -7 -1 -9 2 -5 2 5 15 -2
28 -14 24 -23 33 -46 13 -33 -8 5 -8 1 0 -13 6 -11 7 -23 3 -27 -3 -4 1 -4 10
-1 11 4 18 0 22 -13 8 -23 56 -59 56 -41 0 6 -8 13 -18 15 -9 3 -22 16 -29 30
-12 25 0 34 14 9 5 -8 32 -39 62 -70 29 -30 49 -55 45 -55 -15 1 -40 24 -47
43 -3 9 -11 17 -17 17 -6 0 -9 -4 -5 -9 3 -5 -9 -2 -27 6 -22 11 -33 13 -36 5
-2 -6 -11 -8 -20 -5 -9 3 -6 -3 8 -12 14 -10 31 -25 38 -33 11 -14 14 -14 27
4 13 17 13 16 3 -13 -7 -18 -16 -33 -21 -33 -5 0 -1 -7 8 -16 21 -21 85 -26
85 -7 0 7 -7 13 -15 13 -9 0 -12 6 -9 15 8 20 24 19 24 -1 0 -8 5 -12 10 -9 6
4 7 12 3 18 -4 7 0 6 10 -2 9 -7 17 -23 17 -35 0 -15 3 -17 9 -8 6 10 10 10
21 -3 11 -13 10 -14 -5 -8 -14 5 -17 3 -12 -10 3 -8 1 -18 -6 -20 -7 -3 -1
-13 16 -26 15 -13 27 -29 27 -38 0 -13 3 -13 15 -3 18 15 20 -1 3 -18 -8 -8
-8 -12 -1 -12 6 0 16 7 23 15 10 13 9 19 -6 38 -10 12 -2 6 19 -12 20 -19 37
-36 37 -37 0 -2 -10 -1 -22 1 -12 3 -27 0 -35 -6 -7 -7 -27 -9 -43 -5 -42 8
-90 -3 -90 -21 0 -10 -6 -13 -16 -9 -12 5 -14 1 -9 -17 6 -20 5 -21 -8 -5 -8
10 -19 18 -25 18 -9 0 -24 24 -27 45 0 6 -6 9 -13 8 -10 -3 -42 24 -155 130
-27 24 -32 26 -46 12 -22 -21 -71 -58 -104 -78 -27 -17 -34 -46 -21 -81 7 -19
30 -21 38 -3 6 16 28 -11 69 -87 19 -36 47 -71 72 -88 65 -47 175 -200 175
-244 0 -17 56 -121 75 -140 34 -34 47 -81 63 -222 20 -188 24 -714 5 -733 -10
-10 -13 -10 -13 -1 0 16 -25 15 -39 -2 -25 -30 -121 -24 -121 8 0 8 -7 19 -15
26 -8 6 -13 22 -12 33 2 17 -3 21 -20 20 -13 -2 -23 2 -23 8 0 5 4 7 10 4 18
-11 11 11 -9 29 -13 11 -27 15 -40 11 -15 -4 -21 -2 -21 8 0 11 -10 13 -46 9
-32 -3 -45 -2 -40 6 4 7 -7 9 -34 7 -57 -6 -88 8 -142 65 -25 28 -51 50 -56
50 -12 0 -52 44 -52 57 0 6 -7 16 -15 23 -19 16 -20 34 -1 27 8 -3 20 1 26 9
10 12 8 14 -16 15 l-29 1 27 10 c24 8 26 13 18 29 -6 10 -17 19 -25 19 -8 0
-16 7 -16 15 -1 8 -2 21 -3 28 -2 20 -18 27 -63 27 -43 0 -93 -17 -93 -32 0
-4 9 -8 20 -8 24 0 31 -23 33 -118 1 -41 7 -76 15 -84 6 -6 12 -21 12 -32 0
-20 -1 -20 -19 3 -11 15 -21 20 -25 13 -8 -13 2 -61 16 -79 5 -7 5 -14 -2 -18
-17 -10 -11 -53 13 -99 19 -35 27 -42 39 -35 11 6 19 5 23 -1 3 -5 1 -10 -6
-10 -7 0 -4 -7 7 -15 19 -14 18 -14 -3 -15 -15 0 -21 -5 -17 -14 3 -8 11 -13
18 -10 7 3 18 -2 25 -9 9 -12 6 -19 -16 -38 -32 -27 -34 -69 -4 -69 14 0 17
-6 13 -25 -2 -14 1 -32 8 -40 11 -13 10 -18 -5 -28 -16 -13 -16 -14 0 -30 9
-9 21 -17 26 -17 5 0 9 -6 9 -13 0 -7 14 -14 31 -15 17 -1 37 -9 45 -16 11
-12 8 -16 -24 -25 l-37 -10 43 5 c46 6 55 -1 20 -16 -23 -9 -23 -9 2 -10 14
-1 -18 -13 -70 -26 -106 -26 -222 -31 -329 -13 -71 13 -191 62 -191 80 0 6
-12 9 -27 7 -25 -3 -29 -8 -34 -48 l-6 -45 -1 42 c-2 40 -4 43 -39 52 -34 10
-120 8 -218 -5 -22 -3 -58 -17 -80 -32 -36 -25 -47 -27 -120 -24 -44 1 -93 6
-110 12 -34 11 -217 -2 -277 -20 -34 -10 -110 -65 -183 -132 -32 -29 -76 -37
-92 -16 -6 7 -15 26 -20 43 -14 44 -60 66 -137 66 -74 0 -101 -11 -177 -76
-29 -25 -56 -45 -61 -45 -4 0 -8 -7 -8 -16 0 -12 5 -15 23 -9 95 30 158 38
211 26 29 -6 62 -21 71 -31 26 -29 115 -28 141 1 36 40 109 69 171 68 35 0 74
6 98 16 48 21 93 21 158 1 74 -22 303 -8 345 23 18 13 60 26 104 33 72 12 235
15 244 5 3 -3 -2 -31 -11 -64 -9 -32 -19 -68 -22 -80 l-5 -23 396 0 c257 0
396 4 396 10 0 6 -5 10 -10 10 -12 0 -3 170 9 181 6 6 132 24 247 36 34 3 86
-2 153 -17 84 -18 117 -21 184 -15 45 5 98 8 117 9 l35 1 24 122 c24 124 47
159 35 53 -5 -50 -4 -59 12 -70 18 -10 17 -11 -3 -7 -17 4 -23 0 -23 -11 0
-10 -3 -34 -6 -55 -5 -30 -4 -37 10 -37 10 0 16 9 16 25 0 14 4 25 8 25 4 0 8
-12 7 -27 0 -14 5 -28 11 -30 14 -5 25 65 14 86 -5 8 -2 20 5 28 7 7 16 32 20
55 4 23 12 50 18 60 16 25 -2 40 -52 41 -42 2 -59 17 -18 17 29 0 128 -28 103
-29 -15 -1 -17 -6 -13 -31 4 -16 0 -47 -8 -69 -8 -23 -12 -59 -9 -82 3 -24 0
-47 -7 -55 -18 -21 -1 -33 55 -39 26 -3 56 -10 68 -16 14 -7 71 -9 182 -4 88
3 166 6 171 6 6 -1 30 -2 54 -4 l43 -2 65 110 c36 61 83 137 104 171 22 33 39
64 39 68 0 5 -14 6 -30 2 -22 -4 -29 -2 -24 6 4 6 3 8 -3 5 -6 -4 -28 -9 -51
-11 l-40 -6 5 43 c2 23 9 45 15 48 6 4 7 12 4 18 -10 15 37 14 52 -1 8 -8 12
-9 12 -1 0 6 -6 13 -12 15 -12 4 61 57 79 58 5 1 22 19 38 40 17 21 33 39 36
40 3 0 9 -56 13 -125 l6 -126 -38 -57 c-113 -166 -193 -305 -181 -312 23 -15
39 2 115 123 89 143 102 162 109 155 3 -2 -8 -25 -23 -49 -92 -143 -132 -209
-132 -218 0 -6 9 -11 19 -11 19 0 62 54 97 121 8 17 18 28 21 25 7 -7 -11 -45
-39 -88 -23 -33 -24 -60 -2 -51 12 4 14 0 8 -21 -5 -22 -2 -27 22 -37 16 -6
34 -12 39 -13 6 -1 24 -10 42 -19 18 -9 36 -17 41 -17 11 0 32 95 33 150 1 45
-15 150 -22 150 -5 0 -9 5 -9 11 0 5 3 8 8 6 4 -3 7 10 8 28 0 19 7 59 14 90
14 58 12 86 -22 351 l-11 92 31 51 c18 28 32 56 32 62 0 5 9 38 19 72 11 34
31 98 44 142 34 110 60 163 143 285 39 58 83 128 98 156 30 58 79 109 95 100
6 -4 11 -23 11 -42 0 -24 4 -34 13 -32 19 7 83 95 118 165 17 34 36 64 41 65
6 2 12 37 15 78 5 93 10 115 26 132 16 17 126 152 152 188 89 121 142 151 267
151 73 0 96 -8 223 -79 79 -45 127 -100 149 -174 18 -58 10 -94 -38 -180 -44
-80 -46 -116 -6 -193 16 -32 27 -62 24 -67 -7 -10 47 -116 82 -164 40 -53 64
-119 64 -176 0 -29 0 -67 0 -85 0 -17 16 -80 35 -139 19 -60 35 -112 35 -116
0 -4 -13 -15 -29 -24 -16 -10 -32 -26 -34 -36 -6 -21 29 -130 60 -193 19 -36
41 -105 57 -177 4 -19 16 -30 41 -38 34 -11 105 -82 105 -106 0 -6 17 -38 39
-70 142 -216 141 -214 121 -214 -35 0 -74 21 -122 66 -26 24 -50 44 -53 44 -3
0 17 -28 45 -61 28 -34 49 -63 47 -66 -8 -8 -77 26 -77 38 0 6 -7 9 -15 5 -8
-3 -14 0 -12 6 1 7 -14 21 -34 32 l-36 20 -49 -23 c-75 -36 -184 -114 -184
-133 0 -4 -20 -38 -45 -75 -25 -37 -45 -72 -45 -79 0 -7 -3 -19 -6 -28 -5 -14
4 -16 62 -16 41 1 79 7 94 15 14 8 44 14 67 15 39 0 45 4 74 48 44 64 104 119
138 127 15 3 40 1 55 -5 15 -5 46 -10 68 -10 34 0 39 -2 28 -14 -14 -18 -40
-111 -40 -148 l0 -28 108 0 107 0 12 61 c6 33 19 69 27 78 12 13 16 40 16 113
0 92 -1 98 -38 164 -21 38 -49 86 -63 107 -25 39 -89 77 -130 77 -47 0 -59 19
-88 142 -11 48 -43 138 -71 200 -82 187 -91 249 -40 288 l21 16 -30 149 c-17
82 -31 163 -31 182 0 60 -62 188 -150 308 -16 22 -37 63 -46 90 -9 28 -20 55
-24 60 -4 6 -15 42 -24 80 -15 63 -16 76 -2 127 21 82 7 123 -71 212 -62 69
-207 145 -293 153 -67 6 -127 -9 -165 -42 -32 -26 -42 -26 -30 2 10 21 13 63
5 62 -8 -1 -103 -120 -119 -148 -7 -14 -41 -53 -75 -87 -124 -123 -336 -364
-336 -383 0 -6 -4 -11 -10 -11 -5 0 -10 -5 -10 -11 0 -6 7 -8 16 -5 13 5 14 1
9 -27 -8 -37 -38 -72 -54 -63 -12 8 3 45 23 58 6 4 7 10 3 14 -4 4 -17 -4 -30
-17 -40 -41 -110 -103 -152 -133 -22 -17 -58 -47 -81 -69 -23 -21 -59 -50 -80
-64 -21 -15 -42 -30 -45 -35 -3 -5 -13 -6 -21 -3 -8 3 -23 -1 -32 -10 -15 -15
-16 -6 -16 115 l0 132 33 39 c19 21 39 58 46 81 14 46 47 120 116 259 24 47
46 101 50 120 4 19 14 46 21 62 8 15 10 27 5 27 -5 0 -15 -17 -22 -37 -21 -65
-179 -378 -179 -356 0 25 -35 53 -64 53 -11 0 -39 -10 -64 -21 -48 -24 -87
-75 -96 -129 -4 -26 -25 -55 -79 -110 -39 -40 -63 -71 -52 -67 19 7 19 6 1 -7
-10 -8 -15 -19 -12 -24 3 -5 -1 -15 -9 -22 -13 -10 -15 -9 -15 9 0 19 -2 20
-22 10 -13 -7 -25 -15 -28 -18 -3 -3 -22 -17 -42 -31 -36 -24 -62 -62 -51 -74
13 -12 55 -5 96 15 60 31 168 99 195 123 13 11 39 21 58 23 l34 2 0 -87 c-1
-54 -5 -93 -13 -103 -7 -9 -41 -32 -75 -49 -34 -18 -62 -36 -62 -40 0 -4 -11
-10 -25 -12 -16 -3 -25 -1 -25 7 0 14 -33 22 -68 17 -13 -2 -20 -8 -16 -14 5
-8 -3 -9 -25 -5 -20 4 -30 3 -26 -3 3 -6 -1 -10 -9 -10 -9 0 -16 4 -16 9 0 11
-48 20 -136 25 -43 3 -61 1 -49 -4 16 -7 12 -9 -19 -9 -63 -1 -35 -11 59 -21
80 -8 151 -26 218 -53 31 -14 37 -32 7 -24 -11 3 -20 1 -20 -3 0 -5 17 -12 38
-15 20 -3 55 -11 76 -18 46 -13 97 -14 148 -3 l36 8 7 -65 c9 -79 4 -96 -34
-122 -17 -11 -33 -30 -36 -42 -3 -13 -12 -23 -21 -23 -8 0 -18 -8 -21 -17 -4
-10 -22 -33 -40 -52 -18 -19 -33 -38 -33 -43 0 -12 -26 -37 -72 -71 -21 -16
-38 -33 -38 -38 0 -6 -13 -22 -30 -36 -16 -13 -30 -34 -30 -44 0 -11 -8 -23
-17 -26 -25 -9 -63 -46 -63 -60 0 -20 36 -51 57 -50 14 2 20 -9 27 -51 6 -29
14 -51 20 -49 6 2 9 14 8 27 -3 20 -2 22 11 12 8 -7 17 -22 20 -32 4 -16 0
-20 -21 -20 -27 0 -86 -18 -108 -33 -7 -4 -24 -1 -38 7 l-26 13 23 11 c20 11
20 12 2 9 -12 -1 -24 6 -30 18 -15 29 -43 31 -47 3 -3 -20 -12 -24 -61 -33
-57 -10 -69 -25 -19 -25 35 0 21 -25 -15 -26 -17 -1 -39 -4 -49 -8 -16 -6 -16
-8 -4 -16 13 -9 13 -10 0 -11 -8 -1 -1 -5 15 -10 27 -8 27 -8 -8 -4 -32 3 -38
1 -33 -11 5 -13 -2 -14 -42 -9 -26 4 -63 11 -82 16 -19 4 -38 9 -42 9 -4 1
-22 6 -40 11 -32 10 -68 18 -97 23 -8 2 -17 8 -19 14 -2 7 -11 12 -20 12 -15
0 -15 2 -2 10 18 12 6 12 -42 1 -22 -5 -36 -5 -32 0 3 5 -3 9 -13 9 -12 1 -8
5 12 15 17 7 27 14 23 15 -22 6 -34 5 -40 -5 -4 -5 -8 1 -9 15 -1 25 -1 25
-13 -4 l-13 -28 -7 32 c-8 41 -8 191 1 458 l6 211 39 -55 c49 -71 81 -100 145
-130 41 -20 56 -34 73 -69 12 -25 26 -47 31 -51 5 -3 9 -12 9 -21 0 -35 57
-55 79 -29 10 11 7 18 -10 34 -11 11 -18 25 -15 30 3 6 -1 26 -9 46 -19 44
-19 46 3 47 11 0 7 4 -10 11 -16 5 -28 13 -28 16 0 13 15 27 29 27 30 0 19 81
-17 126 -7 10 -14 31 -14 49 -1 17 -7 34 -14 37 -8 3 -12 9 -9 14 3 4 -11 11
-32 15 -21 3 -63 13 -93 22 l-55 16 50 8 c28 4 95 11 150 15 l100 7 -135 7
c-132 6 -184 17 -225 47 -21 15 -4 14 119 -4 27 -4 36 -3 32 5 -4 6 -11 11
-17 11 -5 0 -40 14 -79 31 -50 23 -70 37 -70 50 0 12 -7 19 -20 19 -15 0 -20
7 -20 29 0 15 -3 50 -6 77 l-7 49 79 -81 c129 -132 166 -159 187 -138 4 4 28
9 54 11 27 2 75 12 108 22 44 14 62 16 68 7 6 -8 10 -8 13 0 5 12 74 -5 74
-18 0 -5 6 -8 14 -8 14 0 73 56 434 407 l173 168 70 142 c95 194 118 275 155
531 8 57 28 147 46 200 17 53 37 119 44 147 7 27 31 102 53 165 44 125 52 197
25 225 -12 11 -14 25 -9 48 14 68 17 127 6 127 -17 0 -13 19 9 37 11 10 20 25
20 34 0 17 64 91 72 83 25 -24 575 -61 658 -43 25 5 79 26 120 46 213 102 226
107 271 107 48 1 67 -11 85 -54 7 -17 8 -143 3 -390 -15 -714 -17 -794 -31
-834 -12 -38 -12 -40 17 -60 30 -21 96 -85 172 -167 39 -42 48 -47 100 -52 98
-10 134 -25 191 -82 50 -50 52 -54 52 -107 0 -39 -8 -73 -25 -110 -33 -71 -32
-98 9 -150 35 -47 116 -196 116 -215 0 -6 9 -32 19 -57 15 -33 30 -50 60 -66
22 -11 43 -20 46 -20 3 0 5 1082 5 2405 l0 2406 -157 -2 c-87 -2 -169 -6 -183
-10z m-153 -75 c-3 -3 -12 -4 -19 -1 -8 3 -5 6 6 6 11 1 17 -2 13 -5z m-3297
-294 c0 -4 -9 -10 -20 -13 -22 -6 -23 -5 -14 17 6 14 34 12 34 -4z m490 -10
c0 -5 -7 -10 -15 -10 -7 0 -19 -8 -24 -17 -7 -12 -10 -14 -11 -4 0 11 -3 11
-15 1 -13 -11 -13 -15 -3 -21 9 -6 6 -9 -9 -9 -29 0 -29 11 2 44 23 25 75 37
75 16z m-390 -16 c0 -3 -6 -12 -14 -20 -16 -15 -32 -2 -21 16 7 11 35 14 35 4z
m30 -19 c-10 -12 -9 -15 6 -15 12 0 15 -3 8 -10 -5 -5 -20 -7 -32 -3 -22 5
-22 7 -6 24 20 22 42 26 24 4z m339 -34 c-23 -19 -79 -44 -79 -36 0 3 14 12
32 21 18 9 38 23 46 31 8 8 17 12 20 9 2 -3 -6 -14 -19 -25z m-546 -121 c-2
-2 -6 6 -10 18 -3 12 -9 22 -13 22 -4 0 -11 12 -14 26 -5 18 -2 32 11 46 18
20 18 19 24 -43 3 -35 4 -66 2 -69z m117 96 c0 -14 -4 -27 -10 -31 -5 -3 -7
-12 -4 -19 3 -8 1 -17 -4 -20 -12 -7 -23 44 -15 73 7 29 33 27 33 -3z m-56
-13 c-10 -40 -14 -41 -14 -5 0 18 5 32 10 32 6 0 8 -11 4 -27z m128 -3 c-1
-13 -10 -33 -20 -44 -9 -11 -12 -17 -7 -14 7 4 9 -9 5 -35 -4 -40 -5 -40 -8
-10 -2 20 -11 37 -22 43 -18 10 -18 11 3 50 23 45 54 51 49 10z m-52 -86 c0
-8 -5 -12 -10 -9 -6 4 -8 11 -5 16 9 14 15 11 15 -7z m3285 -184 c3 -5 -1 -10
-9 -10 -9 0 -16 5 -16 10 0 6 4 10 9 10 6 0 13 -4 16 -10z m-2699 -384 c10 -8
29 -12 41 -9 14 3 34 -3 52 -16 16 -12 32 -17 35 -12 8 12 46 2 43 -12 -1 -7
22 -14 59 -18 78 -7 179 -59 179 -91 0 -9 51 -38 68 -38 6 0 25 -13 42 -29 16
-16 44 -33 60 -38 23 -8 29 -15 27 -31 -2 -12 2 -22 7 -22 6 0 11 5 11 10 0
19 20 10 29 -12 5 -13 23 -34 40 -48 17 -14 31 -30 31 -37 0 -17 -17 -17 -24
0 -3 9 -9 7 -19 -6 -9 -11 -16 -14 -19 -7 -2 6 -12 2 -25 -10 -13 -11 -20 -27
-17 -35 4 -9 0 -15 -10 -15 -23 0 -42 -40 -25 -51 8 -5 21 -8 30 -5 12 2 15
-2 12 -15 -4 -16 0 -19 27 -19 29 0 32 3 28 25 -4 17 -1 25 8 25 9 0 14 -12
14 -32 0 -25 3 -29 10 -18 5 8 10 32 10 53 0 33 -3 37 -24 37 -37 0 -31 37 7
46 38 8 101 -21 94 -45 -2 -10 9 -37 24 -60 29 -41 38 -68 20 -56 -5 3 -12 1
-15 -4 -6 -9 22 -26 37 -23 4 1 7 -7 7 -17 0 -17 24 -36 41 -33 9 2 19 -81 12
-106 -3 -12 1 -28 10 -37 14 -13 16 -13 20 3 4 13 5 12 6 -5 0 -12 -3 -25 -9
-28 -16 -10 -12 -35 4 -29 11 4 16 -5 21 -33 3 -21 19 -108 35 -193 30 -154
38 -228 21 -202 -5 9 -12 -7 -21 -47 -8 -38 -21 -68 -36 -82 -13 -12 -24 -32
-25 -43 0 -12 -3 -15 -6 -8 -2 6 -15 12 -28 12 -12 0 -28 7 -35 15 -10 12 -14
12 -32 -5 -11 -10 -18 -25 -16 -32 4 -10 -29 -13 -164 -13 -162 0 -170 1 -196
23 -15 13 -42 33 -61 45 -19 12 -39 31 -45 42 -6 11 -19 26 -28 33 -24 18 -23
32 2 32 15 0 22 9 27 31 4 23 9 28 22 22 33 -16 154 -9 203 12 42 18 168 125
168 143 0 9 57 42 73 42 24 0 11 93 -22 153 -37 69 -38 74 -6 53 36 -24 39
-20 16 20 -12 19 -21 42 -21 50 0 8 -4 14 -8 14 -5 0 -16 15 -24 34 -9 19 -45
56 -80 82 l-63 49 -150 -1 c-219 -2 -215 -1 -225 -27 -8 -20 -9 -20 -10 8 -1
17 -4 25 -7 18 -3 -9 -18 -11 -49 -6 -30 4 -44 2 -44 -6 0 -6 -9 -11 -20 -11
-11 0 -20 -6 -20 -14 0 -17 -63 -48 -83 -40 -10 3 -18 -2 -22 -16 -6 -18 -13
-20 -64 -17 -31 3 -72 12 -91 22 -19 10 -55 19 -80 20 -26 1 -51 4 -56 7 -5 3
-49 4 -99 2 -49 -2 -98 -5 -108 -5 -10 0 -48 -6 -84 -14 -98 -21 -109 -7 -38
46 24 19 45 41 45 50 0 10 11 20 26 23 15 4 29 17 35 34 7 21 16 28 35 27 24
0 26 4 28 42 2 37 -1 44 -23 53 -22 8 -19 9 19 5 l45 -5 -42 16 c-30 11 -43
21 -43 35 0 13 -7 19 -24 19 -34 0 -56 10 -56 25 0 9 -11 12 -37 9 -49 -6 -73
8 -51 29 9 9 24 13 37 10 12 -3 21 -1 21 6 0 6 -7 11 -15 11 -19 0 -19 -1 3
40 31 62 115 150 142 150 8 1 26 7 40 14 21 12 26 12 37 -3 12 -15 14 -15 27
2 17 22 24 22 47 -5 13 -17 18 -19 19 -8 0 13 1 13 10 0 8 -12 13 -13 30 -2
11 6 27 12 35 12 8 0 15 5 15 10 0 16 40 12 46 -5 7 -16 44 -21 44 -5 0 5 7 7
15 4 8 -4 15 -1 15 5 0 6 -7 11 -15 11 -13 0 -12 4 3 21 14 15 26 18 46 13 20
-5 26 -2 26 10 0 20 10 20 36 2z m769 -836 c3 -5 1 -10 -4 -10 -6 0 -11 5 -11
10 0 6 2 10 4 10 3 0 8 -4 11 -10z m-733 -162 c37 -50 90 -162 78 -166 -7 -3
-7 -10 0 -23 6 -10 8 -30 4 -44 -4 -16 0 -34 10 -50 9 -13 16 -35 16 -49 0
-32 15 -40 65 -37 33 2 46 -3 68 -25 34 -34 39 -89 7 -81 -11 3 -20 1 -20 -4
0 -5 -7 -9 -15 -9 -8 0 -15 4 -15 10 0 5 -6 7 -14 4 -8 -3 -29 9 -46 26 -28
27 -37 31 -64 25 -17 -4 -41 -7 -53 -6 -12 0 -25 -4 -28 -9 -8 -13 -62 -13
-70 1 -4 6 -19 10 -33 9 -43 -3 -70 10 -80 39 -11 31 9 98 28 93 7 -2 10 3 7
11 -3 8 -1 19 5 25 6 6 12 41 13 79 2 73 26 141 66 187 29 34 41 33 71 -6z
m-907 -293 c-4 -16 -10 -61 -15 -100 -8 -68 -8 -67 -4 20 3 50 5 110 5 135 l0
45 10 -35 c6 -19 8 -48 4 -65z m1030 65 c3 -5 1 -10 -4 -10 -6 0 -11 5 -11 10
0 6 2 10 4 10 3 0 8 -4 11 -10z m-871 -104 c-3 -9 3 -11 26 -8 22 3 30 0 30
-11 0 -18 26 -29 51 -22 11 4 19 2 19 -5 0 -6 11 -15 25 -20 14 -5 25 -16 25
-24 0 -7 7 -16 15 -20 8 -3 15 -16 16 -28 0 -13 3 -17 6 -10 5 13 23 17 23 4
0 -13 -103 -63 -136 -65 -21 -1 -31 4 -38 20 -6 12 -18 24 -28 26 -24 7 -23
28 2 34 11 3 20 14 20 25 0 15 -5 18 -19 13 -13 -4 -27 2 -40 16 -24 26 -26
35 -8 42 7 4 8 6 1 6 -6 1 -17 -6 -24 -14 -7 -8 -19 -15 -26 -15 -12 0 -11 6
3 28 21 32 45 52 55 46 4 -3 5 -10 2 -18z m529 -107 c-19 -33 -68 -79 -84 -79
-13 0 -11 31 5 59 15 27 51 50 79 51 17 0 17 -1 0 -31z m1267 0 c0 -5 -4 -9
-10 -9 -5 0 -10 7 -10 16 0 8 5 12 10 9 6 -3 10 -10 10 -16z m81 -132 c-3 -32
-15 -57 -27 -53 -7 3 -16 1 -19 -4 -3 -5 -13 -6 -21 -3 -12 4 -9 12 17 39 30
31 51 40 50 21z m-31 -186 c0 -6 -4 -13 -10 -16 -5 -3 -10 1 -10 9 0 9 5 16
10 16 6 0 10 -4 10 -9z m-30 -21 c0 -11 -4 -20 -9 -20 -5 0 -11 9 -14 20 -3
13 0 20 9 20 8 0 14 -9 14 -20z m-967 -167 c-7 -2 -21 -2 -30 0 -10 3 -4 5 12
5 17 0 24 -2 18 -5z m16 -23 c-7 -5 -18 -6 -24 -2 -6 4 -3 8 8 10 9 2 17 9 18
15 0 7 3 7 6 -2 3 -7 -1 -17 -8 -21z m-44 0 c3 -5 -3 -10 -14 -10 -12 0 -21 5
-21 10 0 6 6 10 14 10 8 0 18 -4 21 -10z m-95 -91 c0 -5 -4 -9 -10 -9 -5 0
-10 7 -10 16 0 8 5 12 10 9 6 -3 10 -10 10 -16z m170 12 c0 -10 -24 -21 -46
-21 -8 0 -14 7 -14 15 0 10 10 15 30 15 17 0 30 -4 30 -9z m40 5 c0 -2 -8 -10
-17 -17 -16 -13 -17 -12 -4 4 13 16 21 21 21 13z m-930 -776 c0 -5 -4 -10 -10
-10 -5 0 -10 5 -10 10 0 6 5 10 10 10 6 0 10 -4 10 -10z m44 -109 c3 -4 -6 -6
-19 -3 -14 2 -25 6 -25 8 0 8 39 4 44 -5z m26 -71 c0 -5 -5 -10 -11 -10 -5 0
-7 5 -4 10 3 6 8 10 11 10 2 0 4 -4 4 -10z m160 -110 c0 -5 -2 -10 -4 -10 -3
0 -8 5 -11 10 -3 6 -1 10 4 10 6 0 11 -4 11 -10z m-153 -222 c-3 -8 -6 -5 -6
6 -1 11 2 17 5 13 3 -3 4 -12 1 -19z m43 -135 c0 -5 -9 6 -20 22 -11 17 -20
37 -20 45 0 8 9 -2 20 -23 11 -20 20 -40 20 -44z m59 -20 c6 -13 5 -22 -5 -31
-12 -11 -14 -8 -14 18 0 34 5 38 19 13z m1678 -70 c-9 -26 -27 -72 -41 -100
-14 -29 -26 -58 -26 -65 0 -6 -6 -19 -13 -27 -7 -9 -26 -47 -42 -86 -16 -38
-36 -81 -45 -95 -18 -27 -33 -59 -34 -74 -2 -21 -25 -16 -28 6 -3 14 -7 3 -12
-29 -4 -29 -12 -53 -16 -53 -5 0 -11 -24 -13 -52 -2 -33 -4 -19 -5 37 0 50 -4
128 -7 175 l-7 85 61 65 c34 35 61 68 61 73 0 5 8 7 18 5 14 -4 25 8 46 54 16
33 35 62 42 65 8 3 14 9 14 15 0 10 53 58 58 53 2 -2 -3 -25 -11 -52z m-237
-97 c0 -3 -4 -8 -10 -11 -5 -3 -10 -1 -10 4 0 6 5 11 10 11 6 0 10 -2 10 -4z
m-285 -136 c3 -5 1 -10 -4 -10 -6 0 -11 5 -11 10 0 6 2 10 4 10 3 0 8 -4 11
-10z m-35 -10 c0 -5 -10 -10 -22 -9 -22 0 -22 1 -3 9 11 5 21 9 23 9 1 1 2 -3
2 -9z m327 -262 c-3 -7 -5 -2 -5 12 0 14 2 19 5 13 2 -7 2 -19 0 -25z m-120
-180 c-3 -8 -6 -5 -6 6 -1 11 2 17 5 13 3 -3 4 -12 1 -19z m-1342 -458 c3 -5
1 -10 -4 -10 -6 0 -11 5 -11 10 0 6 2 10 4 10 3 0 8 -4 11 -10z m275 -40 c13
-9 13 -10 0 -9 -8 0 -24 4 -35 9 l-20 9 20 0 c11 0 27 -4 35 -9z m750 0 c0 -5
9 -10 20 -10 11 0 20 -4 20 -10 0 -11 -6 -12 -37 -4 -22 6 -33 34 -13 34 6 0
10 -4 10 -10z m-1200 -11 c0 -4 -6 -9 -12 -12 -22 -8 -3 -17 40 -20 39 -2 40
-3 40 -37 0 -19 2 -44 4 -54 2 -14 -3 -19 -21 -21 -14 -1 -27 -7 -29 -14 -3
-9 -8 -9 -20 1 -13 11 -15 10 -10 -10 6 -20 4 -21 -9 -10 -8 7 -30 11 -49 9
-19 -1 -34 1 -35 6 -5 42 -6 121 -2 136 3 13 11 15 29 11 18 -5 23 -3 19 8 -4
11 2 15 25 15 16 0 30 -4 30 -8z m100 -49 c0 -5 -5 -10 -11 -10 -5 0 -7 5 -4
10 3 6 8 10 11 10 2 0 4 -4 4 -10z m1177 -40 c-6 -16 -14 -26 -17 -21 -3 4
-12 11 -20 14 -11 4 -11 6 4 6 12 1 16 6 12 16 -3 10 1 15 13 15 17 0 18 -3 8
-30z m-50 9 c-9 -6 -15 -14 -12 -20 3 -5 -1 -6 -9 -3 -12 5 -16 -1 -17 -22 0
-17 -3 -23 -6 -14 -3 8 -10 18 -15 21 -15 9 2 38 25 42 43 8 53 7 34 -4z
m-1129 -26 c-6 -7 -12 -13 -13 -13 -2 0 -5 6 -8 13 -3 7 3 13 14 13 13 0 15
-3 7 -13z m659 9 c14 -9 12 -43 -4 -59 -16 -18 -26 -16 -19 2 3 8 1 26 -4 40
-10 26 2 33 27 17z m-187 -69 c-10 -16 -11 -15 -6 7 3 14 6 34 7 45 1 13 3 11
6 -7 2 -15 -1 -35 -7 -45z m680 43 c0 -22 -29 -42 -41 -28 -5 7 -6 10 -3 7 10
-7 35 16 28 26 -3 5 0 9 5 9 6 0 11 -6 11 -14z m-335 -3 c-11 -3 -23 -10 -26
-15 -3 -5 -9 -3 -12 6 -5 13 0 16 26 15 21 -1 25 -3 12 -6z m115 -13 c0 -5 -8
-10 -17 -10 -15 0 -16 2 -3 10 19 12 20 12 20 0z m-97 -7 c-7 -2 -19 -2 -25 0
-7 3 -2 5 12 5 14 0 19 -2 13 -5z m237 -28 c0 -5 -5 -3 -10 5 -5 8 -10 20 -10
25 0 6 5 3 10 -5 5 -8 10 -19 10 -25z m-1120 11 c0 -2 -8 -10 -17 -17 -16 -13
-17 -12 -4 4 13 16 21 21 21 13z m730 -16 c0 -11 -4 -20 -8 -20 -4 0 -8 9 -9
20 -1 11 2 20 8 20 5 0 9 -9 9 -20z m132 -22 c-6 -6 -7 0 -4 19 5 21 7 23 10
9 2 -10 0 -22 -6 -28z m-162 15 c0 -5 -5 -15 -10 -23 -8 -12 -10 -11 -10 8 0
12 5 22 10 22 6 0 10 -3 10 -7z m-60 -24 c0 -11 -4 -17 -10 -14 -5 3 -10 13
-10 21 0 8 5 14 10 14 6 0 10 -9 10 -21z m523 6 c-3 -9 -8 -14 -10 -11 -3 3
-2 9 2 15 9 16 15 13 8 -4z m-515 -50 c15 -5 21 -13 18 -22 -3 -8 -7 -22 -7
-31 -1 -9 -4 -3 -8 13 -5 23 -12 31 -34 33 -15 2 -27 7 -27 11 0 8 23 7 58 -4z
m54 -13 c-7 -2 -12 -13 -12 -25 0 -15 -3 -18 -11 -10 -14 14 7 57 24 46 8 -5
8 -8 -1 -11z m408 14 c0 -2 -8 -10 -17 -17 -16 -13 -17 -12 -4 4 13 16 21 21
21 13z m13 -21 c-3 -9 -8 -14 -10 -11 -3 3 -2 9 2 15 9 16 15 13 8 -4z m-73
-25 c-7 -4 -10 -12 -6 -18 4 -6 -2 -8 -14 -5 -26 7 -34 19 -19 29 8 4 9 3 5
-4 -4 -7 -3 -12 2 -12 6 0 13 7 16 16 3 8 11 12 17 8 8 -5 8 -9 -1 -14z m-373
-42 c-3 -8 -6 -5 -6 6 -1 11 2 17 5 13 3 -3 4 -12 1 -19z m401 2 c-7 -10 -14
-17 -17 -15 -4 4 18 35 25 35 2 0 -1 -9 -8 -20z m409 -77 c-3 -10 -5 -4 -5 12
0 17 2 24 5 18 2 -7 2 -21 0 -30z"/>
<path d="M2552 5940 c0 -19 2 -27 5 -17 2 9 2 25 0 35 -3 9 -5 1 -5 -18z"/>
<path d="M2700 5040 c0 -5 7 -10 16 -10 8 0 12 5 9 10 -3 6 -10 10 -16 10 -5
0 -9 -4 -9 -10z"/>
<path d="M3780 4935 c-13 -35 -13 -95 1 -95 5 0 8 -4 4 -9 -7 -12 25 -30 43
-24 6 3 12 -3 12 -12 0 -9 5 -13 10 -10 8 5 8 11 1 19 -7 9 -7 16 1 24 9 9 9
12 0 12 -7 0 -12 16 -12 43 -1 33 -6 46 -25 60 -25 18 -25 18 -35 -8z"/>
<path d="M3740 4840 c0 -5 5 -10 10 -10 6 0 10 5 10 10 0 6 -4 10 -10 10 -5 0
-10 -4 -10 -10z"/>
<path d="M4030 4663 c1 -17 28 -44 35 -34 10 18 25 13 35 -11 8 -21 9 -20 9 9
1 24 -3 31 -16 31 -10 -1 -28 2 -40 6 -13 4 -23 4 -23 -1z"/>
<path d="M4191 1284 c0 -11 3 -14 6 -6 3 7 2 16 -1 19 -3 4 -6 -2 -5 -13z"/>
<path d="M3321 424 c0 -11 3 -14 6 -6 3 7 2 16 -1 19 -3 4 -6 -2 -5 -13z"/>
<path d="M4573 2968 c-18 -48 -15 -70 3 -29 8 19 13 41 12 49 -2 8 -9 -1 -15
-20z"/>
<path d="M1960 2966 c0 -8 5 -18 10 -21 6 -3 10 1 10 9 0 8 -4 18 -10 21 -5 3
-10 -1 -10 -9z"/>
<path d="M4546 2885 c-9 -26 -7 -32 5 -12 6 10 9 21 6 23 -2 3 -7 -2 -11 -11z"/>
<path d="M2040 2797 c0 -7 14 -34 30 -60 17 -26 30 -53 30 -59 0 -7 10 -23 23
-36 20 -22 20 -24 2 -14 -11 6 -29 19 -40 29 -11 10 -29 25 -40 33 -16 13 -16
10 4 -18 26 -37 41 -112 22 -112 -6 0 -11 4 -11 9 0 5 -9 7 -20 4 -11 -3 -28
1 -37 8 -13 11 -15 11 -9 1 5 -8 27 -22 50 -32 31 -13 47 -27 56 -51 8 -19 21
-39 30 -46 13 -11 13 -12 -3 -13 -27 0 -68 24 -102 60 -64 68 -132 83 -274 59
-222 -37 -329 -63 -453 -109 -159 -59 -256 -108 -282 -144 -18 -23 -18 -32 -7
-125 10 -87 10 -104 -3 -130 -20 -37 -64 -69 -108 -77 -18 -4 -55 -23 -83 -43
-54 -40 -96 -61 -123 -61 -9 0 -39 -17 -65 -39 -133 -105 -267 -319 -267 -426
0 -43 5 -60 26 -84 25 -30 27 -71 3 -71 -5 0 -9 -6 -9 -12 0 -7 -26 -34 -58
-59 -31 -26 -86 -70 -122 -99 -129 -104 -200 -174 -200 -196 0 -17 9 -24 44
-33 25 -6 66 -11 91 -11 43 0 51 4 113 63 37 34 69 64 72 67 3 3 40 35 84 70
123 102 136 117 136 156 0 21 -10 50 -25 72 -42 61 -30 137 39 243 36 56 107
113 221 178 55 31 113 74 150 112 33 33 79 72 103 86 l44 26 -7 61 c-4 34 -14
73 -21 88 -30 59 -14 131 44 192 48 50 118 81 244 106 57 12 126 27 153 35 28
8 118 19 200 25 83 6 155 13 161 14 16 6 116 -14 144 -29 14 -7 39 -31 55 -54
39 -53 86 -71 184 -71 76 0 80 1 105 31 14 17 26 35 26 41 0 13 -106 163 -150
212 -19 21 -34 41 -32 43 1 2 -4 13 -13 26 -9 12 -38 57 -66 100 -50 78 -59
87 -59 64z"/>
<path d="M2450 2520 c0 -5 5 -10 10 -10 6 0 10 5 10 10 0 6 -4 10 -10 10 -5 0
-10 -4 -10 -10z"/>
<path d="M4437 2511 c-4 -17 -3 -21 5 -13 5 5 8 16 6 23 -3 8 -7 3 -11 -10z"/>
<path d="M2490 2497 c0 -11 -4 -15 -12 -11 -7 4 -8 3 -4 -4 4 -6 13 -9 20 -6
8 3 17 1 21 -5 3 -6 14 -11 23 -11 14 1 14 2 -3 12 -11 6 -25 19 -32 27 -11
14 -12 14 -13 -2z"/>
<path d="M2455 2450 c3 -5 8 -10 11 -10 2 0 4 5 4 10 0 6 -5 10 -11 10 -5 0
-7 -4 -4 -10z"/>
<path d="M2512 2445 c9 -9 -9 -45 -21 -45 -5 0 -7 9 -4 20 4 15 2 19 -10 15
-17 -7 -12 -38 10 -56 9 -8 17 -9 24 -2 15 15 18 62 5 70 -6 3 -8 3 -4 -2z"/>
<path d="M2570 2410 c0 -5 5 -10 11 -10 5 0 7 5 4 10 -3 6 -8 10 -11 10 -2 0
-4 -4 -4 -10z"/>
<path d="M763 2403 c-32 -6 -63 -54 -63 -97 0 -20 4 -36 10 -36 5 0 7 -7 4
-15 -11 -28 14 -15 82 41 38 30 81 63 96 72 l28 16 -43 13 c-42 13 -72 14
-114 6z"/>
<path d="M2534 2361 c4 -6 1 -11 -8 -11 -34 0 -10 -33 25 -35 13 -1 15 4 10
24 -4 13 -13 27 -20 29 -8 3 -11 0 -7 -7z"/>
<path d="M2737 2276 c-3 -8 -3 -24 0 -37 5 -18 3 -21 -11 -16 -10 4 -15 3 -11
-3 8 -13 32 -13 40 0 4 6 2 17 -4 24 -6 7 -9 21 -5 30 3 9 4 16 1 16 -3 0 -7
-6 -10 -14z"/>
<path d="M971 2197 c-8 -26 -11 -50 -7 -54 3 -3 6 3 6 15 0 11 5 22 11 24 6 2
9 17 7 33 -3 28 -4 26 -17 -18z"/>
<path d="M1170 2195 c-24 -25 -29 -35 -18 -35 9 0 25 16 37 35 11 19 19 35 18
35 -2 0 -18 -16 -37 -35z"/>
<path d="M2740 2186 c0 -2 7 -7 16 -10 8 -3 12 -2 9 4 -6 10 -25 14 -25 6z"/>
<path d="M1212 2058 c35 -94 78 -279 81 -349 1 -26 5 -45 8 -43 3 2 6 -14 7
-35 2 -38 4 -61 23 -218 11 -90 5 -243 -10 -243 -6 0 -12 -37 -15 -101 -2 -36
-29 -59 -70 -59 -54 0 -48 28 6 32 64 5 61 28 -4 28 -58 0 -71 6 -76 33 -2 14
5 17 35 18 60 1 10 17 -56 18 -31 1 -61 7 -70 15 -9 7 -26 17 -38 20 -19 6
-22 4 -19 -21 1 -15 8 -27 14 -26 7 2 12 -4 12 -12 0 -8 5 -15 10 -15 6 0 16
-11 22 -25 12 -26 43 -34 50 -13 3 8 10 3 18 -11 11 -21 10 -26 -4 -36 -18
-14 -22 -35 -6 -35 6 0 21 7 34 15 35 23 56 10 56 -35 0 -22 -5 -40 -12 -43
-10 -3 -8 -13 6 -37 19 -33 19 -33 0 -47 -12 -9 -37 -13 -69 -11 -49 3 -50 3
-51 -27 -1 -16 5 -38 13 -47 9 -10 13 -24 9 -33 -3 -9 -2 -13 4 -10 5 3 14 -4
20 -15 15 -28 43 -55 72 -71 12 -7 18 -14 13 -16 -18 -6 -9 -83 10 -97 14 -10
18 -25 17 -61 -1 -27 -7 -54 -13 -61 -6 -7 -8 -18 -4 -24 3 -5 1 -10 -6 -10
-7 0 -9 -3 -5 -7 6 -7 72 -16 196 -29 36 -4 73 -11 83 -16 12 -6 23 -6 32 2 8
7 19 9 24 6 5 -4 12 -2 16 4 3 5 -2 10 -12 11 -13 1 -11 3 6 8 14 4 27 13 29
20 3 8 0 11 -7 7 -10 -7 -16 26 -12 62 1 8 -3 20 -9 27 -6 7 -13 26 -14 42 -2
15 -4 31 -5 36 0 4 -8 7 -16 7 -8 0 -15 5 -15 11 0 11 28 9 63 -6 29 -12 20
20 -10 36 -34 17 -53 39 -52 59 4 55 0 60 -41 60 -22 0 -40 5 -40 10 0 6 10
10 23 10 20 1 20 2 4 11 -10 6 -24 8 -31 6 -8 -3 -23 5 -35 19 -21 24 -41 32
-41 15 0 -6 5 -13 10 -16 12 -7 13 -48 3 -59 -4 -4 -13 10 -19 31 -9 30 -12
33 -12 13 0 -14 -3 -45 -6 -70 -5 -33 -4 -40 3 -25 7 14 8 2 4 -40 -6 -66 -13
-85 -13 -39 0 23 -2 26 -10 14 -8 -11 -9 -1 -6 35 16 165 29 274 47 384 25
150 22 302 -9 561 -30 240 -76 422 -144 562 -28 59 -26 24 4 -54z m88 -1062
c0 -3 -4 -8 -10 -11 -5 -3 -10 -1 -10 4 0 6 5 11 10 11 6 0 10 -2 10 -4z"/>
<path d="M5468 2123 c-8 -10 -32 -45 -53 -78 -20 -33 -48 -76 -62 -96 -13 -20
-32 -58 -43 -85 -10 -27 -34 -80 -54 -119 -19 -38 -33 -72 -30 -76 2 -4 -9
-47 -25 -96 -20 -62 -34 -136 -46 -248 -24 -225 -25 -234 -29 -295 -6 -78 -17
-140 -27 -146 -4 -2 -6 -11 -2 -19 3 -8 1 -15 -5 -15 -5 0 -7 -11 -4 -25 3
-18 0 -25 -11 -25 -9 0 -19 -15 -25 -37 -5 -21 -10 -30 -11 -20 -1 18 -12 21
-49 11 -24 -7 -24 -7 -6 -70 4 -15 0 -23 -11 -28 -14 -5 -16 -2 -12 14 3 11 1
18 -4 14 -5 -3 -9 -12 -9 -20 0 -9 -5 -12 -11 -8 -18 11 -2 327 28 533 19 136
23 186 15 189 -19 6 -9 168 15 242 3 8 6 33 8 56 1 22 10 54 19 72 9 17 16 46
16 63 0 18 7 41 17 51 13 14 13 18 2 18 -35 0 -62 -83 -124 -385 -8 -38 -22
-99 -30 -135 -8 -36 -18 -85 -21 -110 -3 -24 -10 -52 -15 -61 -5 -10 -9 -33
-9 -51 0 -18 -7 -41 -15 -51 -8 -12 -11 -31 -8 -53 4 -26 2 -35 -11 -40 -10
-4 -16 -16 -15 -28 1 -11 -2 -35 -6 -53 -7 -29 -12 -33 -52 -39 -35 -5 -46
-12 -54 -31 -12 -33 -11 -43 5 -43 15 0 24 -25 18 -53 -2 -10 -13 -17 -27 -17
-34 0 -55 -10 -55 -26 0 -8 -7 -14 -15 -14 -10 0 -15 -10 -15 -31 0 -25 -4
-30 -22 -29 -42 4 -59 0 -53 -10 4 -6 15 -8 26 -5 29 10 22 -8 -11 -27 -20
-11 -30 -25 -30 -41 0 -16 -9 -28 -25 -35 -33 -15 -38 -15 -32 1 3 9 -7 19
-29 27 -19 8 -34 20 -34 28 0 12 -3 12 -15 2 -14 -12 -13 -15 5 -32 23 -22 26
-32 6 -25 -8 3 -20 -1 -27 -10 -11 -13 -10 -18 9 -33 12 -10 22 -23 22 -29 0
-6 8 -11 18 -11 13 0 10 -6 -13 -26 -20 -16 -26 -27 -17 -30 21 -9 13 -21 -18
-28 -31 -6 -31 -6 -13 -32 16 -26 16 -27 -6 -45 -13 -11 -32 -19 -43 -19 -23
0 -48 -22 -48 -42 0 -8 -5 -19 -12 -26 -9 -9 -9 -12 0 -12 7 0 12 -13 12 -30
0 -27 -8 -35 -32 -31 -5 0 -8 -10 -8 -23 0 -14 -5 -28 -11 -31 -7 -5 -2 -16
12 -31 l22 -24 678 0 677 0 8 67 c5 38 7 80 6 94 -2 18 12 44 49 90 28 35 60
81 70 101 10 20 30 54 44 74 34 50 30 85 -17 130 -36 36 -37 37 -95 29 -32 -4
-120 -7 -195 -6 -120 1 -142 -1 -174 -18 -21 -11 -64 -23 -96 -27 -33 -4 -66
-13 -74 -21 -26 -26 -17 71 16 167 50 150 111 268 206 395 128 170 180 254
204 324 24 72 25 102 5 140 -21 42 -65 53 -65 16 0 -7 -12 -27 -26 -44 -14
-17 -23 -31 -21 -31 8 0 -33 -49 -77 -92 -22 -21 -45 -38 -52 -38 -7 0 -36 -5
-63 -11 l-50 -10 -3 -67 c-2 -37 -4 -3 -5 76 -2 178 6 212 92 372 37 69 87
176 112 239 24 63 52 126 62 140 35 51 41 71 9 34z m-753 -1433 c-3 -5 -11
-10 -16 -10 -6 0 -7 5 -4 10 3 6 11 10 16 10 6 0 7 -4 4 -10z"/>
<path d="M2645 2110 c-3 -5 -1 -10 4 -10 6 0 11 5 11 10 0 6 -2 10 -4 10 -3 0
-8 -4 -11 -10z"/>
<path d="M5477 1806 c-14 -18 -35 -53 -47 -77 -12 -24 -27 -56 -35 -72 -13
-25 -13 -27 3 -18 37 20 144 161 123 161 -6 0 -8 6 -5 14 11 29 -15 24 -39 -8z"/>
<path d="M1090 1823 c0 -5 7 -17 15 -27 15 -20 20 -10 9 18 -6 16 -24 22 -24
9z"/>
<path d="M4610 1625 c0 -9 -7 -27 -16 -40 -16 -25 -5 -36 13 -12 16 19 25 67
13 67 -5 0 -10 -7 -10 -15z"/>
<path d="M6102 1516 c1 -54 4 -73 10 -61 8 13 22 16 71 14 67 -3 119 13 78 24
-12 3 -48 5 -81 4 l-59 -2 2 37 c1 21 -4 43 -11 50 -9 9 -12 -5 -10 -66z"/>
<path d="M3280 1523 c-25 -3 -49 -9 -55 -14 -11 -11 142 -1 185 12 27 8 -45 9
-130 2z"/>
<path d="M3155 1510 l-40 -7 48 -2 c30 0 46 3 42 9 -3 6 -7 9 -8 9 -1 -1 -20
-5 -42 -9z"/>
<path d="M292 1475 c0 -16 2 -22 5 -12 2 9 2 23 0 30 -3 6 -5 -1 -5 -18z"/>
<path d="M3440 1470 c0 -5 6 -10 14 -10 8 0 18 5 21 10 3 6 -3 10 -14 10 -12
0 -21 -4 -21 -10z"/>
<path d="M3393 1463 c9 -2 23 -2 30 0 6 3 -1 5 -18 5 -16 0 -22 -2 -12 -5z"/>
<path d="M4990 1441 c0 -25 6 -27 13 -6 4 8 2 17 -3 20 -6 4 -10 -3 -10 -14z"/>
<path d="M3640 1446 c0 -2 11 -6 25 -8 13 -3 22 -1 19 3 -5 9 -44 13 -44 5z"/>
<path d="M304 1368 c0 -42 4 -74 9 -71 9 5 7 90 -3 123 -5 16 -7 -2 -6 -52z"/>
<path d="M5650 1332 c0 -5 3 -12 8 -16 4 -4 7 -19 7 -32 1 -26 -14 -30 -45
-14 -15 8 -24 2 -55 -40 -20 -27 -45 -52 -56 -55 -10 -4 -17 -10 -14 -15 3 -5
-14 -25 -37 -46 -24 -20 -36 -33 -28 -29 8 4 3 -4 -12 -19 -15 -15 -31 -39
-34 -54 -4 -15 -13 -36 -20 -47 -23 -37 -26 -62 -8 -69 13 -5 15 -1 10 21 -5
19 -4 23 3 14 7 -10 21 -12 55 -8 51 7 77 21 148 80 46 37 56 53 122 200 13
27 22 37 33 33 13 -5 13 -3 -1 19 -10 15 -18 38 -19 53 -2 21 -8 28 -30 30
-15 2 -27 -1 -27 -6z m-80 -146 c0 -11 -19 -15 -25 -6 -3 5 1 10 9 10 9 0 16
-2 16 -4z"/>
<path d="M1177 964 c-8 -8 1 -24 14 -24 5 0 9 7 9 15 0 15 -12 20 -23 9z"/>
<path d="M1341 774 c0 -11 3 -14 6 -6 3 7 2 16 -1 19 -3 4 -6 -2 -5 -13z"/>
<path d="M4988 773 c12 -2 30 -2 40 0 9 3 -1 5 -23 4 -22 0 -30 -2 -17 -4z"/>
<path d="M1 617 l-1 -118 30 -10 c17 -6 30 -14 30 -18 0 -14 58 -69 79 -76 12
-3 21 -12 21 -20 0 -8 8 -16 18 -19 9 -3 40 -28 67 -56 50 -50 130 -100 160
-100 9 0 35 -18 57 -39 22 -22 45 -37 51 -35 7 3 26 24 42 47 62 85 175 117
425 121 98 2 185 20 175 36 -4 6 -12 10 -19 10 -7 0 -18 11 -25 24 -7 13 -24
29 -37 35 -18 8 -24 19 -24 42 0 24 -4 30 -15 25 -18 -7 -42 27 -51 72 -5 26
-11 32 -32 32 -14 0 -34 -8 -44 -17 -10 -9 -31 -18 -46 -21 -49 -7 -227 -9
-237 -2 -5 4 -27 10 -48 13 -21 3 -77 24 -126 46 -87 41 -117 50 -107 32 4 -5
-3 -7 -15 -4 -16 4 -17 8 -7 14 8 6 -1 9 -27 10 -29 0 -35 2 -21 8 18 7 18 8
2 14 -10 4 -26 7 -36 7 -10 0 -20 4 -22 10 -5 14 -136 20 -142 6 -2 -6 -5 -3
-5 8 -1 15 -4 16 -16 6 -10 -8 -15 -9 -15 -2 0 6 -6 9 -14 6 -8 -3 -16 2 -19
13 -3 10 -5 -35 -6 -100z"/>
<path d="M3905 570 c3 -5 8 -10 11 -10 2 0 4 5 4 10 0 6 -5 10 -11 10 -5 0 -7
-4 -4 -10z"/>
<path d="M3865 539 c-10 -15 3 -25 16 -12 7 7 7 13 1 17 -6 3 -14 1 -17 -5z"/>
<path d="M3974 472 c-17 -26 -52 -82 -77 -124 -26 -42 -62 -101 -81 -131 -28
-44 -32 -56 -21 -61 27 -10 39 3 99 102 33 53 81 130 108 170 26 41 48 78 48
83 0 5 -10 9 -22 9 -16 0 -33 -15 -54 -48z"/>
<path d="M3336 496 c10 -8 21 -12 24 -10 5 6 -21 24 -34 24 -6 0 -1 -6 10 -14z"/>
<path d="M4211 424 c0 -11 3 -14 6 -6 3 7 2 16 -1 19 -3 4 -6 -2 -5 -13z"/>
<path d="M1597 309 c7 -7 15 -10 18 -7 3 3 -2 9 -12 12 -14 6 -15 5 -6 -5z"/>
<path d="M2 247 c-1 -18 6 -26 36 -36 20 -8 50 -23 66 -34 l29 -20 20 24 19
24 -33 14 c-19 7 -47 13 -64 13 -21 -1 -25 2 -15 8 11 7 8 11 -13 19 -39 15
-42 14 -45 -12z"/>
<path d="M5983 103 c-7 -3 -13 -10 -13 -17 0 -7 -9 -21 -20 -31 -24 -22 -26
-35 -4 -35 8 0 12 -4 9 -10 -12 -20 25 -9 51 15 26 24 26 24 8 53 -11 16 -25
27 -31 25z"/>
<path d="M4000 71 c0 -6 4 -13 10 -16 6 -3 7 1 4 9 -7 18 -14 21 -14 7z"/>
<path d="M4009 25 c0 -11 -3 -14 -6 -7 -7 17 -43 15 -43 -3 0 -12 14 -15 62
-15 60 0 74 6 29 13 -12 2 -27 10 -32 18 -7 11 -9 10 -10 -6z"/>
</g>
</svg>
